<?xml version="1.0" encoding="UTF-8" standalone="no"?>
<!-- Created with Inkscape (http://www.inkscape.org/) -->

<svg
   xmlns:dc="http://purl.org/dc/elements/1.1/"
   xmlns:cc="http://creativecommons.org/ns#"
   xmlns:rdf="http://www.w3.org/1999/02/22-rdf-syntax-ns#"
   xmlns:svg="http://www.w3.org/2000/svg"
   xmlns="http://www.w3.org/2000/svg"
   xmlns:sodipodi="http://sodipodi.sourceforge.net/DTD/sodipodi-0.dtd"
   xmlns:inkscape="http://www.inkscape.org/namespaces/inkscape"
   id="svg2"
   version="1.1"
   inkscape:version="0.48.2 r9819"
   width="600"
   height="425"
   sodipodi:docname="fallow-deer-602253_1280.jpg">
  <metadata
     id="metadata8">
    <rdf:RDF>
      <cc:Work
         rdf:about="">
        <dc:format>image/svg+xml</dc:format>
        <dc:type
           rdf:resource="http://purl.org/dc/dcmitype/StillImage" />
        <dc:title></dc:title>
      </cc:Work>
    </rdf:RDF>
  </metadata>
  <defs
     id="defs6" />
  <sodipodi:namedview
     pagecolor="#ffffff"
     bordercolor="#666666"
     borderopacity="1"
     objecttolerance="10"
     gridtolerance="10"
     guidetolerance="10"
     inkscape:pageopacity="0"
     inkscape:pageshadow="2"
     inkscape:window-width="1431"
     inkscape:window-height="1001"
     id="namedview4"
     showgrid="false"
     borderlayer="true"
     inkscape:showpageshadow="false"
     inkscape:zoom="0.415"
     inkscape:cx="250.61588"
     inkscape:cy="79.349818"
     inkscape:window-x="318"
     inkscape:window-y="0"
     inkscape:window-maximized="0"
     inkscape:current-layer="g3799" />
  <g
     id="g3848"
     transform="matrix(0.46009156,0,0,0.4589937,-7.8173422,15.03477)">
    <g
       id="g3823">
      <g
         id="g3799">
        <g
           id="g3923">
          <g
             transform="matrix(1.0282363,0,0,1.0110212,4.7827423,-21.944517)"
             id="g3898">
            <g
               id="g3874">
              <rect
                 style="fill:#a35b52;fill-opacity:1;fill-rule:nonzero;stroke:#030000;stroke-width:0;stroke-linecap:round;stroke-linejoin:round;stroke-miterlimit:4;stroke-opacity:1;stroke-dasharray:none;stroke-dashoffset:0"
                 id="rect3797"
                 width="1298.3684"
                 height="609.14648"
                 x="-5.7196851"
                 y="-13.532301" />
              <rect
                 style="fill:#77544d;fill-opacity:1;fill-rule:nonzero;stroke:#030000;stroke-width:0;stroke-linecap:round;stroke-linejoin:round;stroke-miterlimit:4;stroke-opacity:1;stroke-dasharray:none;stroke-dashoffset:0"
                 id="rect3795"
                 width="1297.5393"
                 height="374.98981"
                 x="-5.3441315"
                 y="564.15588" />
              <path
                 style="fill:#d3bba4;fill-opacity:1;stroke:#000000;stroke-width:0;stroke-linecap:butt;stroke-linejoin:miter;stroke-miterlimit:4;stroke-opacity:1;stroke-dasharray:none"
                 d="m 493.94282,453.68224 -17.03251,45.42003 11.35501,62.45254 c 0,0 -13.24751,24.60251 -9.46251,34.06502 3.78501,9.46251 22.71002,41.63503 22.71002,41.63503 l 43.52753,13.24751 c 0,0 5.6775,43.52752 7.57,51.09753 1.8925,7.57 52.99004,28.38752 52.99004,28.38752 l 90.84005,1.8925 62.45254,-26.49502 20.81752,-37.85002 9.4625,-15.14001 47.31254,-32.17252 c 0,0 0,-34.06503 0,-49.20504 0,-15.14001 17.03251,-73.80754 17.03251,-73.80754 0,0 5.6775,-34.06503 5.6775,-41.63503 0,-7.57001 5.6775,-37.85003 5.6775,-37.85003 l 26.49502,-77.59255 15.14001,-41.63502 37.85002,1.8925 100.30259,-56.77504 c 0,0 45.42,-58.66754 45.42,-70.02254 0,-11.35501 20.8175,-41.63503 28.3875,-54.88254 7.57,-13.24751 26.495,-39.742521 30.28,-49.205027 3.785,-9.462506 17.0325,-43.527528 17.0325,-43.527528 l -15.14,-15.14001 -104.0875,24.602516 -96.51758,49.205032 -39.74253,26.495017 -15.14001,24.60251 -39.74252,64.34504 -81.37756,-20.81751 -87.05505,-34.06502 c 0,0 -26.49502,1.8925 -41.63503,11.35501 -15.14001,9.4625 -79.48505,43.52752 -79.48505,43.52752 l -43.52753,0 -34.06502,-35.95752 -11.35501,-24.60252 -147.61509,-85.162547 -70.02255,-18.925012 -9.4625,13.247509 -5.67751,22.710014 26.49502,49.205026 66.23754,123.01258 87.05506,64.34504 13.24751,0 15.14001,20.81752 22.71001,11.355 24.60252,70.02255 z"
                 id="path2987"
                 inkscape:connector-curvature="0" />
              <path
                 style="fill:#989898;fill-opacity:1;stroke:#000000;stroke-width:0;stroke-linecap:butt;stroke-linejoin:miter;stroke-miterlimit:4;stroke-opacity:1;stroke-dasharray:none"
                 d="m 584.78288,326.88466 c 11.35501,-7.57001 54.88253,-32.17252 66.23754,-26.49502 11.35501,5.67751 75.70005,60.56004 75.70005,60.56004 0,0 41.63503,43.52753 47.31253,52.99004 5.6775,9.4625 45.42003,37.85002 43.52753,47.31253 -1.8925,9.4625 -1.8925,45.42003 -1.8925,45.42003 l 17.03251,109.76507 -58.66754,47.31253 -15.14001,41.63502 -47.31253,26.49502 c 0,0 -22.71001,13.24751 -35.95752,13.24751 -13.24751,0 -126.79758,-15.14001 -130.58259,-22.71001 -3.785,-7.57001 -9.4625,-37.85003 -9.4625,-37.85003 l -5.67751,-26.49502 c 0,0 -34.06502,-9.4625 -39.74252,-18.92501 -5.67751,-9.4625 -28.38752,-35.95752 -22.71002,-43.52753 5.67751,-7.57 22.71002,-41.63502 18.92501,-52.99003 -3.785,-11.35501 -22.71001,-52.99004 -22.71001,-52.99004 l 32.17252,-49.20503 c 46.10374,-34.82555 34.84577,-71.56065 88.94756,-113.55007 z"
                 id="path2999"
                 inkscape:connector-curvature="0"
                 sodipodi:nodetypes="cscsscccccssccsssccc" />
              <path
                 style="fill:#180000;fill-opacity:1;stroke:#000000;stroke-width:0;stroke-linecap:butt;stroke-linejoin:miter;stroke-miterlimit:4;stroke-opacity:1;stroke-dasharray:none"
                 d="m 529.90034,455.57474 34.06502,1.8925 39.74253,30.28002 c 0,0 62.45254,-5.6775 70.02255,-9.4625 7.57,-3.785 68.13004,-22.71002 68.13004,-22.71002 0,0 51.09753,24.60252 51.09753,32.17252 0,7.57001 -9.4625,35.95753 -9.4625,35.95753 0,0 7.57,11.355 -3.78501,15.14001 -11.355,3.785 -24.60251,11.355 -24.60251,11.355 l -9.46251,13.24751 c 0,0 7.57001,13.24751 3.785,20.81752 -3.785,7.57 -13.2475,22.71001 -22.71001,26.49501 -9.46251,3.78501 -34.06502,37.85003 -34.06502,37.85003 0,0 -17.03251,5.6775 -5.67751,7.57 11.35501,1.8925 83.27006,1.8925 83.27006,1.8925 l -35.95752,28.38752 -51.09754,9.46251 -79.48505,5.6775 -37.85002,-13.24751 -9.46251,-28.38751 34.06502,-9.46251 -18.92501,-26.49502 -30.28002,-15.14001 -11.35501,-26.49502 28.38752,-30.28001 3.785,-28.38752 c 0,0 -43.52752,-20.81752 -43.52752,-28.38752 0,-7.57001 -1.89251,-26.49502 -1.89251,-26.49502 z"
                 id="path2989"
                 inkscape:connector-curvature="0" />
              <path
                 style="fill:#000000;fill-opacity:1;stroke:#000000;stroke-width:0;stroke-linecap:butt;stroke-linejoin:miter;stroke-miterlimit:4;stroke-opacity:1;stroke-dasharray:none"
                 d="m 444.73779,332.56216 c 24.12028,-8.94192 20.81751,-34.06502 20.81751,-34.06502 31.29994,-39.1883 101.69824,3.64299 -20.81751,34.06502 z"
                 id="path2991"
                 inkscape:connector-curvature="0"
                 sodipodi:nodetypes="csc" />
              <path
                 style="fill:#000000;fill-opacity:1;stroke:#000000;stroke-width:0;stroke-linecap:butt;stroke-linejoin:miter;stroke-miterlimit:4;stroke-opacity:1;stroke-dasharray:none"
                 d="m 813.49927,339.44152 c 1.99026,-8.81269 3.85354,-32.61057 36.51003,-52.57564 82.64452,-50.52606 59.41976,64.74073 38.35418,36.37035 -6.89721,-8.86004 -20.35478,-13.10384 -33.33184,-20.0828 -14.39908,-7.74372 -25.18836,0.10952 -41.53237,36.28809 z"
                 id="path2993"
                 inkscape:connector-curvature="0"
                 sodipodi:nodetypes="cscsc" />
              <path
                 style="fill:#77544d;fill-opacity:1;stroke:#000000;stroke-width:0;stroke-linecap:butt;stroke-linejoin:miter;stroke-miterlimit:4;stroke-opacity:1;stroke-dasharray:none"
                 d="m 1057.9082,92.214508 c -26.495,3.785002 -90.84007,18.925012 -90.84007,18.925012 l -5.67751,30.28002 -17.03251,52.99003 c 0,0 -11.35501,58.66754 1.8925,56.77504 13.24751,-1.8925 52.99004,-45.42003 52.99004,-54.88253 0,-9.46251 -11.35501,-22.71002 -1.8925,-32.17253 9.46255,-9.4625 24.60255,-20.81751 39.74255,-39.74252 15.14,-18.92501 20.8175,-32.172522 20.8175,-32.172522 z"
                 id="path2995"
                 inkscape:connector-curvature="0" />
              <path
                 style="fill:#381916;fill-opacity:1;stroke:#000000;stroke-width:0;stroke-linecap:butt;stroke-linejoin:miter;stroke-miterlimit:4;stroke-opacity:1;stroke-dasharray:none"
                 d="m 291.44519,109.24702 c 20.81751,17.03251 79.48505,60.56004 79.48505,60.56004 l -18.92501,15.14001 41.63502,54.88253 c 0,0 68.13005,41.63503 68.13005,34.06503 0,-7.57001 -43.52753,-77.59255 -43.52753,-77.59255 0,0 15.14001,-32.17253 3.785,-34.06503 -11.355,-1.8925 -54.88253,-32.17252 -64.34504,-34.06502 -9.4625,-1.8925 -66.23754,-18.92501 -66.23754,-18.92501 z"
                 id="path2997"
                 inkscape:connector-curvature="0" />
              <path
                 style="fill:#d6a16d;fill-opacity:1;stroke:#000000;stroke-width:0;stroke-linecap:butt;stroke-linejoin:miter;stroke-miterlimit:4;stroke-opacity:1;stroke-dasharray:none"
                 d="m 562.07286,726.20242 c -13.2475,-1.8925 -54.88253,-3.785 -70.02254,-5.67751 -15.14001,-1.8925 -62.45254,-11.355 -62.45254,-11.355 l -56.77504,9.4625 -43.52753,32.17252 -7.57,26.49502 -20.85969,101.43864 166.49792,14.34139 328.07761,0.88298 L 772.1405,845.43 770.248,790.54746 c 0,0 3.785,-62.45254 5.6775,-75.70005 1.8925,-13.24751 5.67751,-58.66754 5.67751,-58.66754 l -30.28002,52.99004 -62.45254,32.17252 -109.76508,-7.57001 z"
                 id="path3001"
                 inkscape:connector-curvature="0"
                 sodipodi:nodetypes="cscccccccccsccccc" />
              <path
                 style="fill:#ffffff;fill-opacity:1;stroke:#000000;stroke-width:0;stroke-linecap:butt;stroke-linejoin:miter;stroke-miterlimit:4;stroke-opacity:1;stroke-dasharray:none"
                 d="m 370.93024,786.76246 -20.81751,-3.78501 17.03251,-22.71001 9.4625,3.785 z"
                 id="path3003"
                 inkscape:connector-curvature="0" />
              <path
                 style="fill:#ffffff;fill-opacity:1;stroke:#000000;stroke-width:0;stroke-linecap:butt;stroke-linejoin:miter;stroke-miterlimit:4;stroke-opacity:1;stroke-dasharray:none"
                 d="m 425.81278,839.75249 0,-20.81751 18.92501,3.785 1.8925,11.35501 z"
                 id="path3005"
                 inkscape:connector-curvature="0" />
              <path
                 style="fill:#ffffff;fill-opacity:1;stroke:#000000;stroke-width:0;stroke-linecap:butt;stroke-linejoin:miter;stroke-miterlimit:4;stroke-opacity:1;stroke-dasharray:none"
                 d="m 410.67277,784.86996 17.03251,-26.49502 22.71001,26.49502 -15.14001,7.57 z"
                 id="path3007"
                 inkscape:connector-curvature="0" />
              <path
                 style="fill:#ffffff;fill-opacity:1;stroke:#000000;stroke-width:0;stroke-linecap:butt;stroke-linejoin:miter;stroke-miterlimit:4;stroke-opacity:1;stroke-dasharray:none"
                 d="m 367.14524,828.39748 0,-24.60251 26.49501,-5.67751 0,17.03252 z"
                 id="path3009"
                 inkscape:connector-curvature="0" />
              <path
                 style="fill:#ffffff;fill-opacity:1;stroke:#000000;stroke-width:0;stroke-linecap:butt;stroke-linejoin:miter;stroke-miterlimit:4;stroke-opacity:1;stroke-dasharray:none"
                 d="m 401.21026,737.55743 c 0,0 13.24751,-15.14001 17.03251,-5.67751 3.785,9.46251 0,22.71002 0,22.71002 z"
                 id="path3011"
                 inkscape:connector-curvature="0" />
              <path
                 style="fill:#ffffff;fill-opacity:1;stroke:#000000;stroke-width:0;stroke-linecap:butt;stroke-linejoin:miter;stroke-miterlimit:4;stroke-opacity:1;stroke-dasharray:none"
                 d="m 469.3403,750.80493 24.60252,0 -11.35501,18.92502 z"
                 id="path3013"
                 inkscape:connector-curvature="0" />
              <path
                 style="fill:#ffffff;fill-opacity:1;stroke:#000000;stroke-width:0;stroke-linecap:butt;stroke-linejoin:miter;stroke-miterlimit:4;stroke-opacity:1;stroke-dasharray:none"
                 d="m 499.62032,796.22496 30.28002,-22.71001 c 0,0 13.24751,20.81751 3.78501,24.60251 -9.46251,3.78501 -18.92502,5.67751 -18.92502,5.67751 z"
                 id="path3015"
                 inkscape:connector-curvature="0" />
              <path
                 style="fill:#ffffff;fill-opacity:1;stroke:#000000;stroke-width:0;stroke-linecap:butt;stroke-linejoin:miter;stroke-miterlimit:4;stroke-opacity:1;stroke-dasharray:none"
                 d="m 482.58781,830.28999 17.03251,-9.46251 11.35501,15.14001 z"
                 id="path3017"
                 inkscape:connector-curvature="0" />
              <path
                 style="fill:#ffffff;fill-opacity:1;stroke:#000000;stroke-width:0;stroke-linecap:butt;stroke-linejoin:miter;stroke-miterlimit:4;stroke-opacity:1;stroke-dasharray:none"
                 d="m 319.83271,841.64499 5.6775,-17.03251 22.71002,15.14001 -7.57001,5.67751 z"
                 id="path3019"
                 inkscape:connector-curvature="0" />
              <path
                 style="fill:#ffffff;fill-opacity:1;stroke:#000000;stroke-width:0;stroke-linecap:butt;stroke-linejoin:miter;stroke-miterlimit:4;stroke-opacity:1;stroke-dasharray:none"
                 d="m 327.40271,807.57997 -5.6775,-17.03251 11.35501,-9.46251 7.57,18.92502 -3.785,9.4625 z"
                 id="path3021"
                 inkscape:connector-curvature="0" />
              <path
                 style="fill:#e3e3e3;fill-opacity:1;stroke:#000000;stroke-width:0;stroke-linecap:butt;stroke-linejoin:miter;stroke-miterlimit:4;stroke-opacity:1;stroke-dasharray:none"
                 d="m 753.21549,387.4447 -1.8925,70.02254 37.85002,20.81752 -1.8925,45.42003 0,11.355 -32.17252,15.14001 -3.785,13.24751 c 0,0 0,9.46251 0,18.92501 0,9.46251 -34.06503,37.85003 -34.06503,37.85003 l -17.03251,20.81751 -11.355,11.35501 c 0,0 -9.46251,5.6775 0,5.6775 9.4625,0 75.70004,3.78501 75.70004,3.78501 l -37.85002,30.28002 -88.94756,9.4625 -43.52753,1.8925 -22.71001,-11.355 -13.24751,-28.38752 34.06502,-13.24751 -22.71001,-22.71002 c 0,0 -26.49502,-9.4625 -26.49502,-17.03251 0,-7.57 -7.57,-30.28002 -7.57,-30.28002 l 24.60251,-26.49501 1.8925,-32.17252 -9.4625,-5.67751 -22.71002,-17.03251 -9.4625,-18.92501 0,-13.24751 -30.28002,-18.92501 -24.60252,34.06502 1.8925,20.81751 17.03251,39.74253 -5.6775,30.28002 c 0,0 -17.03251,13.24751 -13.24751,24.60251 3.785,11.35501 35.95752,56.77504 35.95752,56.77504 0,0 26.49502,-7.57 30.28002,3.785 3.78501,11.35501 15.14001,68.13005 15.14001,68.13005 l 43.52753,5.6775 77.59255,7.57001 58.66754,-15.14001 43.52753,-35.95753 3.785,-22.71001 c 0,0 62.45254,-45.42003 60.56004,-52.99004 -1.8925,-7.57 -22.71001,-92.73256 -22.71001,-100.30256 0,-7.57001 3.785,-54.88254 3.785,-54.88254 L 777.818,419.61722 z"
                 id="path3791"
                 inkscape:connector-curvature="0" />
              <path
                 style="fill:#ffffff;fill-opacity:1;stroke:#000000;stroke-width:0;stroke-linecap:butt;stroke-linejoin:miter;stroke-miterlimit:4;stroke-opacity:1;stroke-dasharray:none"
                 d="m 562.07286,729.98742 c 11.68557,136.13307 2.11991,155.32928 102.99368,179.19991 113.37714,27.01565 88.65265,-122.56629 95.71895,-203.80243 l 1.8925,-15.14001 -52.99003,40.66769 -62.45254,4.75234 -66.23754,-1.8925 z"
                 id="path3793"
                 inkscape:connector-curvature="0"
                 sodipodi:nodetypes="cccccccc" />
            </g>
          </g>
        </g>
      </g>
    </g>
  </g>
</svg>
